{
  "asset": {
    "generator": "Khronos glTF Blender I/O v3.3.32",
    "version": "2.0"
  },
  "scene": 0,
  "scenes": [
    {
      "name": "Scene",
      "nodes": [
        0
      ]
    }
  ],
  "nodes": [
    {
      "mesh": 0,
      "name": "stone_fire_pit"
    }
  ],
  "materials": [
    {
      "doubleSided": true,
      "name": "stone_fire_pit",
      "normalTexture": {
        "index": 0
      },
      "pbrMetallicRoughness": {
        "baseColorTexture": {
          "index": 1
        },
        "metallicFactor": 0,
        "metallicRoughnessTexture": {
          "index": 2
        }
      }
    }
  ],
  "meshes": [
    {
      "name": "texturedMesh.002",
      "primitives": [
        {
          "attributes": {
            "POSITION": 0,
            "NORMAL": 1,
            "TEXCOORD_0": 2
          },
          "indices": 3,
          "material": 0
        }
      ]
    }
  ],
  "textures": [
    {
      "sampler": 0,
      "source": 0
    },
    {
      "sampler": 0,
      "source": 1
    },
    {
      "sampler": 0,
      "source": 2
    }
  ],
  "images": [
    {
      "mimeType": "image/jpeg",
      "name": "stone_fire_pit_nor_gl",
      "uri": "textures/stone_fire_pit_nor_gl_1k.jpg"
    },
    {
      "mimeType": "image/jpeg",
      "name": "stone_fire_pit_diff",
      "uri": "textures/stone_fire_pit_diff_1k.jpg"
    },
    {
      "mimeType": "image/jpeg",
      "name": "stone_fire_pit_rough",
      "uri": "textures/stone_fire_pit_arm_1k.jpg"
    }
  ],
  "accessors": [
    {
      "bufferView": 0,
      "componentType": 5126,
      "count": 2278,
      "max": [
        0.7121797800064087,
        0.1949031502008438,
        0.7183254957199097
      ],
      "min": [
        -0.736316442489624,
        -0.19342292845249176,
        -0.7149089574813843
      ],
      "type": "VEC3"
    },
    {
      "bufferView": 1,
      "componentType": 5126,
      "count": 2278,
      "type": "VEC3"
    },
    {
      "bufferView": 2,
      "componentType": 5126,
      "count": 2278,
      "type": "VEC2"
    },
    {
      "bufferView": 3,
      "componentType": 5123,
      "count": 11661,
      "type": "SCALAR"
    }
  ],
  "bufferViews": [
    {
      "buffer": 0,
      "byteLength": 27336,
      "byteOffset": 0,
      "target": 34962
    },
    {
      "buffer": 0,
      "byteLength": 27336,
      "byteOffset": 27336,
      "target": 34962
    },
    {
      "buffer": 0,
      "byteLength": 18224,
      "byteOffset": 54672,
      "target": 34962
    },
    {
      "buffer": 0,
      "byteLength": 23322,
      "byteOffset": 72896,
      "target": 34963
    }
  ],
  "samplers": [
    {
      "magFilter": 9729,
      "minFilter": 9987
    }
  ],
  "buffers": [
    {
      "byteLength": 96220,
      "uri": "stone_fire_pit.bin"
    }
  ]
}