{
  "asset": {
    "generator": "Khronos glTF Blender I/O v3.5.30",
    "version": "2.0"
  },
  "scene": 0,
  "scenes": [
    {
      "name": "Scene",
      "nodes": [
        0
      ]
    }
  ],
  "nodes": [
    {
      "mesh": 0,
      "name": "shrub_04",
      "translation": [
        0.5103073120117188,
        0,
        0
      ]
    }
  ],
  "materials": [
    {
      "alphaCutoff": 0.5,
      "alphaMode": "MASK",
      "doubleSided": true,
      "name": "shrub_04",
      "normalTexture": {
        "index": 0
      },
      "pbrMetallicRoughness": {
        "baseColorTexture": {
          "index": 1
        },
        "metallicFactor": 0,
        "metallicRoughnessTexture": {
          "index": 2
        }
      }
    }
  ],
  "meshes": [
    {
      "name": "Plane.063",
      "primitives": [
        {
          "attributes": {
            "POSITION": 0,
            "TEXCOORD_0": 1,
            "NORMAL": 2
          },
          "indices": 3,
          "material": 0
        }
      ]
    }
  ],
  "textures": [
    {
      "sampler": 0,
      "source": 0
    },
    {
      "sampler": 0,
      "source": 1
    },
    {
      "sampler": 0,
      "source": 2
    }
  ],
  "images": [
    {
      "mimeType": "image/jpeg",
      "name": "shrub_04_nor_gl",
      "uri": "textures/shrub_04_nor_gl_1k.jpg"
    },
    {
      "mimeType": "image/jpeg",
      "name": "shrub_04_diff",
      "uri": "textures/shrub_04_diff_1k.jpg"
    },
    {
      "mimeType": "image/jpeg",
      "name": "shrub_04_rough",
      "uri": "textures/shrub_04_arm_1k.jpg"
    }
  ],
  "accessors": [
    {
      "bufferView": 0,
      "componentType": 5126,
      "count": 18285,
      "max": [
        0.048936210572719574,
        0.2132624387741089,
        0.07108771800994873
      ],
      "min": [
        -0.5347539782524109,
        -0.005937241483479738,
        -0.07500956952571869
      ],
      "type": "VEC3"
    },
    {
      "bufferView": 1,
      "componentType": 5126,
      "count": 18285,
      "type": "VEC2"
    },
    {
      "bufferView": 2,
      "componentType": 5126,
      "count": 18285,
      "type": "VEC3"
    },
    {
      "bufferView": 3,
      "componentType": 5123,
      "count": 81981,
      "type": "SCALAR"
    }
  ],
  "bufferViews": [
    {
      "buffer": 0,
      "byteLength": 219420,
      "byteOffset": 0,
      "target": 34962
    },
    {
      "buffer": 0,
      "byteLength": 146280,
      "byteOffset": 219420,
      "target": 34962
    },
    {
      "buffer": 0,
      "byteLength": 219420,
      "byteOffset": 365700,
      "target": 34962
    },
    {
      "buffer": 0,
      "byteLength": 163962,
      "byteOffset": 585120,
      "target": 34963
    }
  ],
  "samplers": [
    {
      "magFilter": 9729,
      "minFilter": 9987
    }
  ],
  "buffers": [
    {
      "byteLength": 749084,
      "uri": "shrub_04.bin"
    }
  ]
}