{
  "asset": {
    "generator": "Khronos glTF Blender I/O v4.0.44",
    "version": "2.0"
  },
  "scene": 0,
  "scenes": [
    {
      "name": "Scene",
      "nodes": [
        0
      ]
    }
  ],
  "nodes": [
    {
      "mesh": 0,
      "name": "rock_face_01"
    }
  ],
  "materials": [
    {
      "doubleSided": true,
      "name": "rock_face_01",
      "normalTexture": {
        "index": 0
      },
      "pbrMetallicRoughness": {
        "baseColorTexture": {
          "index": 1
        },
        "metallicFactor": 0,
        "metallicRoughnessTexture": {
          "index": 2
        }
      }
    }
  ],
  "meshes": [
    {
      "name": "rock_face_section_1_proxy",
      "primitives": [
        {
          "attributes": {
            "POSITION": 0,
            "NORMAL": 1,
            "TEXCOORD_0": 2
          },
          "indices": 3,
          "material": 0
        }
      ]
    }
  ],
  "textures": [
    {
      "sampler": 0,
      "source": 0
    },
    {
      "sampler": 0,
      "source": 1
    },
    {
      "sampler": 0,
      "source": 2
    }
  ],
  "images": [
    {
      "mimeType": "image/jpeg",
      "name": "rock_face_01_nor_gl",
      "uri": "textures/rock_face_01_nor_gl_1k.jpg"
    },
    {
      "mimeType": "image/jpeg",
      "name": "rock_face_01_diff",
      "uri": "textures/rock_face_01_diff_1k.jpg"
    },
    {
      "mimeType": "image/jpeg",
      "name": "rock_face_01_rough",
      "uri": "textures/rock_face_01_arm_1k.jpg"
    }
  ],
  "accessors": [
    {
      "bufferView": 0,
      "componentType": 5126,
      "count": 11106,
      "max": [
        2.8199098110198975,
        3.5296897888183594,
        0.36125504970550537
      ],
      "min": [
        -2.133601427078247,
        -0.03435921296477318,
        -3.466048240661621
      ],
      "type": "VEC3"
    },
    {
      "bufferView": 1,
      "componentType": 5126,
      "count": 11106,
      "type": "VEC3"
    },
    {
      "bufferView": 2,
      "componentType": 5126,
      "count": 11106,
      "type": "VEC2"
    },
    {
      "bufferView": 3,
      "componentType": 5123,
      "count": 60522,
      "type": "SCALAR"
    }
  ],
  "bufferViews": [
    {
      "buffer": 0,
      "byteLength": 133272,
      "byteOffset": 0,
      "target": 34962
    },
    {
      "buffer": 0,
      "byteLength": 133272,
      "byteOffset": 133272,
      "target": 34962
    },
    {
      "buffer": 0,
      "byteLength": 88848,
      "byteOffset": 266544,
      "target": 34962
    },
    {
      "buffer": 0,
      "byteLength": 121044,
      "byteOffset": 355392,
      "target": 34963
    }
  ],
  "samplers": [
    {
      "magFilter": 9729,
      "minFilter": 9987
    }
  ],
  "buffers": [
    {
      "byteLength": 476436,
      "uri": "rock_face_01.bin"
    }
  ]
}