{
  "asset": {
    "generator": "Khronos glTF Blender I/O v3.6.27",
    "version": "2.0"
  },
  "scene": 0,
  "scenes": [
    {
      "name": "Scene",
      "nodes": [
        0
      ]
    }
  ],
  "nodes": [
    {
      "mesh": 0,
      "name": "wooden_candlestick"
    }
  ],
  "materials": [
    {
      "name": "wooden_candlestick",
      "normalTexture": {
        "index": 0
      },
      "pbrMetallicRoughness": {
        "baseColorTexture": {
          "index": 1
        },
        "metallicFactor": 0,
        "metallicRoughnessTexture": {
          "index": 2
        }
      }
    }
  ],
  "meshes": [
    {
      "name": "Mesh",
      "primitives": [
        {
          "attributes": {
            "POSITION": 0,
            "NORMAL": 1,
            "TEXCOORD_0": 2
          },
          "indices": 3,
          "material": 0
        }
      ]
    }
  ],
  "textures": [
    {
      "sampler": 0,
      "source": 0
    },
    {
      "sampler": 0,
      "source": 1
    },
    {
      "sampler": 0,
      "source": 2
    }
  ],
  "images": [
    {
      "mimeType": "image/jpeg",
      "name": "wooden_candlestick_nor_gl",
      "uri": "textures/wooden_candlestick_nor_gl_1k.jpg"
    },
    {
      "mimeType": "image/jpeg",
      "name": "wooden_candlestick_diff",
      "uri": "textures/wooden_candlestick_diff_1k.jpg"
    },
    {
      "mimeType": "image/jpeg",
      "name": "wooden_candlestick_rough",
      "uri": "textures/wooden_candlestick_arm_1k.jpg"
    }
  ],
  "accessors": [
    {
      "bufferView": 0,
      "componentType": 5126,
      "count": 113178,
      "max": [
        0.048511430621147156,
        0.2196599245071411,
        0.04926217347383499
      ],
      "min": [
        -0.04871144890785217,
        0,
        -0.049412503838539124
      ],
      "type": "VEC3"
    },
    {
      "bufferView": 1,
      "componentType": 5126,
      "count": 113178,
      "type": "VEC3"
    },
    {
      "bufferView": 2,
      "componentType": 5126,
      "count": 113178,
      "type": "VEC2"
    },
    {
      "bufferView": 3,
      "componentType": 5125,
      "count": 638976,
      "type": "SCALAR"
    }
  ],
  "bufferViews": [
    {
      "buffer": 0,
      "byteLength": 1358136,
      "byteOffset": 0,
      "target": 34962
    },
    {
      "buffer": 0,
      "byteLength": 1358136,
      "byteOffset": 1358136,
      "target": 34962
    },
    {
      "buffer": 0,
      "byteLength": 905424,
      "byteOffset": 2716272,
      "target": 34962
    },
    {
      "buffer": 0,
      "byteLength": 2555904,
      "byteOffset": 3621696,
      "target": 34963
    }
  ],
  "samplers": [
    {
      "magFilter": 9729,
      "minFilter": 9987
    }
  ],
  "buffers": [
    {
      "byteLength": 6177600,
      "uri": "wooden_candlestick.bin"
    }
  ]
}