{
  "asset": {
    "generator": "Khronos glTF Blender I/O v4.1.63",
    "version": "2.0"
  },
  "scene": 0,
  "scenes": [
    {
      "name": "Scene",
      "nodes": [
        0
      ]
    }
  ],
  "nodes": [
    {
      "mesh": 0,
      "name": "antique_estoc",
      "rotation": [
        0.7071068286895752,
        0,
        0,
        0.7071068286895752
      ]
    }
  ],
  "materials": [
    {
      "doubleSided": true,
      "name": "antique_estoc",
      "normalTexture": {
        "index": 0
      },
      "pbrMetallicRoughness": {
        "baseColorTexture": {
          "index": 1
        },
        "metallicRoughnessTexture": {
          "index": 2
        }
      }
    }
  ],
  "meshes": [
    {
      "name": "Cylinder.004",
      "primitives": [
        {
          "attributes": {
            "POSITION": 0,
            "NORMAL": 1,
            "TEXCOORD_0": 2
          },
          "indices": 3,
          "material": 0
        }
      ]
    }
  ],
  "textures": [
    {
      "sampler": 0,
      "source": 0
    },
    {
      "sampler": 0,
      "source": 1
    },
    {
      "sampler": 0,
      "source": 2
    }
  ],
  "images": [
    {
      "mimeType": "image/jpeg",
      "name": "antique_estoc_nor_gl",
      "uri": "textures/antique_estoc_nor_gl_1k.jpg"
    },
    {
      "mimeType": "image/jpeg",
      "name": "antique_estoc_diff",
      "uri": "textures/antique_estoc_diff_1k.jpg"
    },
    {
      "mimeType": "image/jpeg",
      "name": "antique_estoc_metal-antique_estoc_rough",
      "uri": "textures/antique_estoc_arm_1k.jpg"
    }
  ],
  "accessors": [
    {
      "bufferView": 0,
      "componentType": 5126,
      "count": 5537,
      "max": [
        0.18569593131542206,
        0.07381919026374817,
        0.19931820034980774
      ],
      "min": [
        -0.18582312762737274,
        -0.07527782022953033,
        -1.2930612564086914
      ],
      "type": "VEC3"
    },
    {
      "bufferView": 1,
      "componentType": 5126,
      "count": 5537,
      "type": "VEC3"
    },
    {
      "bufferView": 2,
      "componentType": 5126,
      "count": 5537,
      "type": "VEC2"
    },
    {
      "bufferView": 3,
      "componentType": 5123,
      "count": 24738,
      "type": "SCALAR"
    }
  ],
  "bufferViews": [
    {
      "buffer": 0,
      "byteLength": 66444,
      "byteOffset": 0,
      "target": 34962
    },
    {
      "buffer": 0,
      "byteLength": 66444,
      "byteOffset": 66444,
      "target": 34962
    },
    {
      "buffer": 0,
      "byteLength": 44296,
      "byteOffset": 132888,
      "target": 34962
    },
    {
      "buffer": 0,
      "byteLength": 49476,
      "byteOffset": 177184,
      "target": 34963
    }
  ],
  "samplers": [
    {
      "magFilter": 9729,
      "minFilter": 9987
    }
  ],
  "buffers": [
    {
      "byteLength": 226660,
      "uri": "antique_estoc.bin"
    }
  ]
}