{
  "asset": {
    "generator": "Khronos glTF Blender I/O v4.4.55",
    "version": "2.0"
  },
  "scene": 0,
  "scenes": [
    {
      "name": "Scene",
      "nodes": [
        0
      ]
    }
  ],
  "nodes": [
    {
      "mesh": 0,
      "name": "ornate_war_hammer"
    }
  ],
  "materials": [
    {
      "doubleSided": true,
      "name": "ornate_war_hammer",
      "normalTexture": {
        "index": 0
      },
      "pbrMetallicRoughness": {
        "baseColorTexture": {
          "index": 1
        },
        "metallicRoughnessTexture": {
          "index": 2
        }
      }
    }
  ],
  "meshes": [
    {
      "name": "Plane.007",
      "primitives": [
        {
          "attributes": {
            "POSITION": 0,
            "NORMAL": 1,
            "TEXCOORD_0": 2
          },
          "indices": 3,
          "material": 0
        }
      ]
    }
  ],
  "textures": [
    {
      "sampler": 0,
      "source": 0
    },
    {
      "sampler": 0,
      "source": 1
    },
    {
      "sampler": 0,
      "source": 2
    }
  ],
  "images": [
    {
      "mimeType": "image/jpeg",
      "name": "ornate_war_hammer_nor_gl",
      "uri": "textures/ornate_war_hammer_nor_gl_1k.jpg"
    },
    {
      "mimeType": "image/jpeg",
      "name": "ornate_war_hammer_diff",
      "uri": "textures/ornate_war_hammer_diff_1k.jpg"
    },
    {
      "mimeType": "image/jpeg",
      "name": "ornate_war_hammer_metal-ornate_war_hammer_rough",
      "uri": "textures/ornate_war_hammer_arm_1k.jpg"
    }
  ],
  "accessors": [
    {
      "bufferView": 0,
      "componentType": 5126,
      "count": 3650,
      "max": [
        0.0773499459028244,
        0.5610549449920654,
        0.017406301572918892
      ],
      "min": [
        -0.06677579879760742,
        -0.1501227766275406,
        -0.017406301572918892
      ],
      "type": "VEC3"
    },
    {
      "bufferView": 1,
      "componentType": 5126,
      "count": 3650,
      "type": "VEC3"
    },
    {
      "bufferView": 2,
      "componentType": 5126,
      "count": 3650,
      "type": "VEC2"
    },
    {
      "bufferView": 3,
      "componentType": 5123,
      "count": 15576,
      "type": "SCALAR"
    }
  ],
  "bufferViews": [
    {
      "buffer": 0,
      "byteLength": 43800,
      "byteOffset": 0,
      "target": 34962
    },
    {
      "buffer": 0,
      "byteLength": 43800,
      "byteOffset": 43800,
      "target": 34962
    },
    {
      "buffer": 0,
      "byteLength": 29200,
      "byteOffset": 87600,
      "target": 34962
    },
    {
      "buffer": 0,
      "byteLength": 31152,
      "byteOffset": 116800,
      "target": 34963
    }
  ],
  "samplers": [
    {
      "magFilter": 9729,
      "minFilter": 9987
    }
  ],
  "buffers": [
    {
      "byteLength": 147952,
      "uri": "ornate_war_hammer.bin"
    }
  ]
}