{
  "asset": {
    "generator": "Khronos glTF Blender I/O v3.5.30",
    "version": "2.0"
  },
  "scene": 0,
  "scenes": [
    {
      "name": "Scene",
      "nodes": [
        0
      ]
    }
  ],
  "nodes": [
    {
      "mesh": 0,
      "name": "tree_stump_02"
    }
  ],
  "materials": [
    {
      "doubleSided": true,
      "name": "tree_stump_02",
      "normalTexture": {
        "index": 0
      },
      "pbrMetallicRoughness": {
        "baseColorTexture": {
          "index": 1
        },
        "metallicFactor": 0,
        "metallicRoughnessTexture": {
          "index": 2
        }
      }
    }
  ],
  "meshes": [
    {
      "name": "tt_02_reproject.001",
      "primitives": [
        {
          "attributes": {
            "POSITION": 0,
            "TEXCOORD_0": 1,
            "NORMAL": 2
          },
          "indices": 3,
          "material": 0
        }
      ]
    }
  ],
  "textures": [
    {
      "sampler": 0,
      "source": 0
    },
    {
      "sampler": 0,
      "source": 1
    },
    {
      "sampler": 0,
      "source": 2
    }
  ],
  "images": [
    {
      "mimeType": "image/jpeg",
      "name": "tree_stump_02_nor_gl",
      "uri": "textures/tree_stump_02_nor_gl_1k.jpg"
    },
    {
      "mimeType": "image/jpeg",
      "name": "tree_stump_02_diff",
      "uri": "textures/tree_stump_02_diff_1k.jpg"
    },
    {
      "mimeType": "image/jpeg",
      "name": "tree_stump_02_rough",
      "uri": "textures/tree_stump_02_arm_1k.jpg"
    }
  ],
  "accessors": [
    {
      "bufferView": 0,
      "componentType": 5126,
      "count": 33119,
      "max": [
        0.8038125038146973,
        0.28860294818878174,
        0.7182251811027527
      ],
      "min": [
        -0.7178851366043091,
        -0.23348920047283173,
        -0.6743079423904419
      ],
      "type": "VEC3"
    },
    {
      "bufferView": 1,
      "componentType": 5126,
      "count": 33119,
      "type": "VEC2"
    },
    {
      "bufferView": 2,
      "componentType": 5126,
      "count": 33119,
      "type": "VEC3"
    },
    {
      "bufferView": 3,
      "componentType": 5123,
      "count": 187035,
      "type": "SCALAR"
    }
  ],
  "bufferViews": [
    {
      "buffer": 0,
      "byteLength": 397428,
      "byteOffset": 0,
      "target": 34962
    },
    {
      "buffer": 0,
      "byteLength": 264952,
      "byteOffset": 397428,
      "target": 34962
    },
    {
      "buffer": 0,
      "byteLength": 397428,
      "byteOffset": 662380,
      "target": 34962
    },
    {
      "buffer": 0,
      "byteLength": 374070,
      "byteOffset": 1059808,
      "target": 34963
    }
  ],
  "samplers": [
    {
      "magFilter": 9729,
      "minFilter": 9987
    }
  ],
  "buffers": [
    {
      "byteLength": 1433880,
      "uri": "tree_stump_02.bin"
    }
  ]
}