{
  "asset": {
    "generator": "Khronos glTF Blender I/O v3.5.30",
    "version": "2.0"
  },
  "scene": 0,
  "scenes": [
    {
      "name": "Scene",
      "nodes": [
        0
      ]
    }
  ],
  "nodes": [
    {
      "mesh": 0,
      "name": "stone_01"
    }
  ],
  "materials": [
    {
      "doubleSided": true,
      "name": "stone_01",
      "normalTexture": {
        "index": 0
      },
      "pbrMetallicRoughness": {
        "baseColorTexture": {
          "index": 1
        },
        "metallicFactor": 0,
        "metallicRoughnessTexture": {
          "index": 2
        }
      }
    }
  ],
  "meshes": [
    {
      "name": "Plane.001",
      "primitives": [
        {
          "attributes": {
            "POSITION": 0,
            "TEXCOORD_0": 1,
            "NORMAL": 2
          },
          "indices": 3,
          "material": 0
        }
      ]
    }
  ],
  "textures": [
    {
      "sampler": 0,
      "source": 0
    },
    {
      "sampler": 0,
      "source": 1
    },
    {
      "sampler": 0,
      "source": 2
    }
  ],
  "images": [
    {
      "mimeType": "image/jpeg",
      "name": "stone_01_nor_gl",
      "uri": "textures/stone_01_nor_gl_1k.jpg"
    },
    {
      "mimeType": "image/jpeg",
      "name": "stone_01_diff",
      "uri": "textures/stone_01_diff_1k.jpg"
    },
    {
      "mimeType": "image/jpeg",
      "name": "stone_01_rough",
      "uri": "textures/stone_01_arm_1k.jpg"
    }
  ],
  "accessors": [
    {
      "bufferView": 0,
      "componentType": 5126,
      "count": 27888,
      "max": [
        0.07658656686544418,
        0.05715522915124893,
        0.04439559206366539
      ],
      "min": [
        -0.07027817517518997,
        -0.01463993638753891,
        -0.04466071352362633
      ],
      "type": "VEC3"
    },
    {
      "bufferView": 1,
      "componentType": 5126,
      "count": 27888,
      "type": "VEC2"
    },
    {
      "bufferView": 2,
      "componentType": 5126,
      "count": 27888,
      "type": "VEC3"
    },
    {
      "bufferView": 3,
      "componentType": 5123,
      "count": 160560,
      "type": "SCALAR"
    }
  ],
  "bufferViews": [
    {
      "buffer": 0,
      "byteLength": 334656,
      "byteOffset": 0,
      "target": 34962
    },
    {
      "buffer": 0,
      "byteLength": 223104,
      "byteOffset": 334656,
      "target": 34962
    },
    {
      "buffer": 0,
      "byteLength": 334656,
      "byteOffset": 557760,
      "target": 34962
    },
    {
      "buffer": 0,
      "byteLength": 321120,
      "byteOffset": 892416,
      "target": 34963
    }
  ],
  "samplers": [
    {
      "magFilter": 9729,
      "minFilter": 9987
    }
  ],
  "buffers": [
    {
      "byteLength": 1213536,
      "uri": "stone_01.bin"
    }
  ]
}