{
  "asset": {
    "generator": "Khronos glTF Blender I/O v3.5.30",
    "version": "2.0"
  },
  "scene": 0,
  "scenes": [
    {
      "name": "Scene",
      "nodes": [
        0,
        1
      ]
    }
  ],
  "nodes": [
    {
      "mesh": 0,
      "name": "pine_roots_a",
      "translation": [
        0,
        0,
        -0.9258256554603577
      ]
    },
    {
      "mesh": 1,
      "name": "pine_roots_b"
    }
  ],
  "materials": [
    {
      "doubleSided": true,
      "name": "pine_roots_a",
      "normalTexture": {
        "index": 0
      },
      "pbrMetallicRoughness": {
        "baseColorTexture": {
          "index": 1
        },
        "metallicFactor": 0,
        "metallicRoughnessTexture": {
          "index": 2
        }
      }
    },
    {
      "doubleSided": true,
      "name": "pine_roots_b",
      "normalTexture": {
        "index": 3
      },
      "pbrMetallicRoughness": {
        "baseColorTexture": {
          "index": 4
        },
        "metallicFactor": 0,
        "metallicRoughnessTexture": {
          "index": 5
        }
      }
    }
  ],
  "meshes": [
    {
      "name": "fgt_01.001",
      "primitives": [
        {
          "attributes": {
            "POSITION": 0,
            "TEXCOORD_0": 1,
            "NORMAL": 2
          },
          "indices": 3,
          "material": 0
        }
      ]
    },
    {
      "name": "fgt_02_rep.001",
      "primitives": [
        {
          "attributes": {
            "POSITION": 4,
            "TEXCOORD_0": 5,
            "NORMAL": 6
          },
          "indices": 7,
          "material": 1
        }
      ]
    }
  ],
  "textures": [
    {
      "sampler": 0,
      "source": 0
    },
    {
      "sampler": 0,
      "source": 1
    },
    {
      "sampler": 0,
      "source": 2
    },
    {
      "sampler": 0,
      "source": 3
    },
    {
      "sampler": 0,
      "source": 4
    },
    {
      "sampler": 0,
      "source": 5
    }
  ],
  "images": [
    {
      "mimeType": "image/jpeg",
      "name": "pine_roots_a_nor_gl",
      "uri": "textures/pine_roots_a_nor_gl_1k.jpg"
    },
    {
      "mimeType": "image/jpeg",
      "name": "pine_roots_a_diff",
      "uri": "textures/pine_roots_a_diff_1k.jpg"
    },
    {
      "mimeType": "image/jpeg",
      "name": "pine_roots_a_rough",
      "uri": "textures/pine_roots_a_arm_1k.jpg"
    },
    {
      "mimeType": "image/jpeg",
      "name": "pine_roots_b_nor_gl",
      "uri": "textures/pine_roots_b_nor_gl_1k.jpg"
    },
    {
      "mimeType": "image/jpeg",
      "name": "pine_roots_b_diff",
      "uri": "textures/pine_roots_b_diff_1k.jpg"
    },
    {
      "mimeType": "image/jpeg",
      "name": "pine_roots_b_rough",
      "uri": "textures/pine_roots_b_arm_1k.jpg"
    }
  ],
  "accessors": [
    {
      "bufferView": 0,
      "componentType": 5126,
      "count": 43897,
      "max": [
        0.946092963218689,
        0.1221693754196167,
        0.40915942192077637
      ],
      "min": [
        -0.7932701110839844,
        -0.02220262587070465,
        -0.41689586639404297
      ],
      "type": "VEC3"
    },
    {
      "bufferView": 1,
      "componentType": 5126,
      "count": 43897,
      "type": "VEC2"
    },
    {
      "bufferView": 2,
      "componentType": 5126,
      "count": 43897,
      "type": "VEC3"
    },
    {
      "bufferView": 3,
      "componentType": 5123,
      "count": 244875,
      "type": "SCALAR"
    },
    {
      "bufferView": 4,
      "componentType": 5126,
      "count": 42891,
      "max": [
        0.8029320240020752,
        0.11543001234531403,
        0.5503677129745483
      ],
      "min": [
        -0.825982928276062,
        -0.032630667090415955,
        -0.4424440264701843
      ],
      "type": "VEC3"
    },
    {
      "bufferView": 5,
      "componentType": 5126,
      "count": 42891,
      "type": "VEC2"
    },
    {
      "bufferView": 6,
      "componentType": 5126,
      "count": 42891,
      "type": "VEC3"
    },
    {
      "bufferView": 7,
      "componentType": 5123,
      "count": 243204,
      "type": "SCALAR"
    }
  ],
  "bufferViews": [
    {
      "buffer": 0,
      "byteLength": 526764,
      "byteOffset": 0,
      "target": 34962
    },
    {
      "buffer": 0,
      "byteLength": 351176,
      "byteOffset": 526764,
      "target": 34962
    },
    {
      "buffer": 0,
      "byteLength": 526764,
      "byteOffset": 877940,
      "target": 34962
    },
    {
      "buffer": 0,
      "byteLength": 489750,
      "byteOffset": 1404704,
      "target": 34963
    },
    {
      "buffer": 0,
      "byteLength": 514692,
      "byteOffset": 1894456,
      "target": 34962
    },
    {
      "buffer": 0,
      "byteLength": 343128,
      "byteOffset": 2409148,
      "target": 34962
    },
    {
      "buffer": 0,
      "byteLength": 514692,
      "byteOffset": 2752276,
      "target": 34962
    },
    {
      "buffer": 0,
      "byteLength": 486408,
      "byteOffset": 3266968,
      "target": 34963
    }
  ],
  "samplers": [
    {
      "magFilter": 9729,
      "minFilter": 9987
    }
  ],
  "buffers": [
    {
      "byteLength": 3753376,
      "uri": "pine_roots.bin"
    }
  ]
}