{
  "asset": {
    "generator": "Khronos glTF Blender I/O v3.5.30",
    "version": "2.0"
  },
  "extensionsUsed": [
    "KHR_materials_specular",
    "KHR_materials_ior"
  ],
  "scene": 0,
  "scenes": [
    {
      "name": "Scene",
      "nodes": [
        0,
        1,
        2
      ]
    }
  ],
  "nodes": [
    {
      "mesh": 0,
      "name": "pine_sapling_small_b",
      "translation": [
        1,
        0,
        0
      ]
    },
    {
      "mesh": 1,
      "name": "pine_sapling_small_a"
    },
    {
      "mesh": 2,
      "name": "pine_sapling_small_c",
      "translation": [
        2,
        0,
        0
      ]
    }
  ],
  "materials": [
    {
      "doubleSided": true,
      "extensions": {
        "KHR_materials_specular": {
          "specularColorFactor": [
            0.0474271512287485,
            0.0474271512287485,
            0.0474271512287485
          ]
        },
        "KHR_materials_ior": {
          "ior": 1.4500000476837158
        }
      },
      "name": "pine_sapling_small_bark",
      "normalTexture": {
        "index": 0
      },
      "pbrMetallicRoughness": {
        "baseColorTexture": {
          "index": 1
        },
        "metallicFactor": 0,
        "metallicRoughnessTexture": {
          "index": 2
        }
      }
    },
    {
      "alphaCutoff": 0.5,
      "alphaMode": "MASK",
      "doubleSided": true,
      "extensions": {
        "KHR_materials_specular": {
          "specularColorFactor": [
            0.02371357561437425,
            0.02371357561437425,
            0.02371357561437425
          ]
        },
        "KHR_materials_ior": {
          "ior": 1.4500000476837158
        }
      },
      "name": "pine_sapling_small_twig",
      "normalTexture": {
        "index": 3
      },
      "pbrMetallicRoughness": {
        "baseColorTexture": {
          "index": 4
        },
        "metallicFactor": 0,
        "metallicRoughnessTexture": {
          "index": 5
        }
      }
    }
  ],
  "meshes": [
    {
      "name": "pine_sapling_small_b",
      "primitives": [
        {
          "attributes": {
            "POSITION": 0,
            "TEXCOORD_0": 1,
            "NORMAL": 2
          },
          "indices": 3,
          "material": 0
        },
        {
          "attributes": {
            "POSITION": 4,
            "TEXCOORD_0": 5,
            "NORMAL": 6
          },
          "indices": 7,
          "material": 1
        }
      ]
    },
    {
      "name": "pine_sapling_small_a",
      "primitives": [
        {
          "attributes": {
            "POSITION": 8,
            "TEXCOORD_0": 9,
            "NORMAL": 10
          },
          "indices": 11,
          "material": 0
        },
        {
          "attributes": {
            "POSITION": 12,
            "TEXCOORD_0": 13,
            "NORMAL": 14
          },
          "indices": 15,
          "material": 1
        }
      ]
    },
    {
      "name": "pine_sapling_small_c",
      "primitives": [
        {
          "attributes": {
            "POSITION": 16,
            "TEXCOORD_0": 17,
            "NORMAL": 18
          },
          "indices": 19,
          "material": 0
        },
        {
          "attributes": {
            "POSITION": 20,
            "TEXCOORD_0": 21,
            "NORMAL": 22
          },
          "indices": 23,
          "material": 1
        }
      ]
    }
  ],
  "textures": [
    {
      "sampler": 0,
      "source": 0
    },
    {
      "sampler": 0,
      "source": 1
    },
    {
      "sampler": 0,
      "source": 2
    },
    {
      "sampler": 0,
      "source": 3
    },
    {
      "sampler": 0,
      "source": 4
    },
    {
      "sampler": 0,
      "source": 5
    }
  ],
  "images": [
    {
      "mimeType": "image/jpeg",
      "name": "pine_sapling_small_bark_nor_gl",
      "uri": "textures/pine_sapling_small_bark_nor_gl_1k.jpg"
    },
    {
      "mimeType": "image/jpeg",
      "name": "pine_sapling_small_bark_diff",
      "uri": "textures/pine_sapling_small_bark_diff_1k.jpg"
    },
    {
      "mimeType": "image/jpeg",
      "name": "pine_sapling_small_bark_rough",
      "uri": "textures/pine_sapling_small_bark_arm_1k.jpg"
    },
    {
      "mimeType": "image/jpeg",
      "name": "pine_sapling_small_twig_nor_gl",
      "uri": "textures/pine_sapling_small_twig_nor_gl_1k.jpg"
    },
    {
      "mimeType": "image/jpeg",
      "name": "pine_sapling_small_twig_diff",
      "uri": "textures/pine_sapling_small_twig_diff_1k.jpg"
    },
    {
      "mimeType": "image/jpeg",
      "name": "pine_sapling_small_twig_rough",
      "uri": "textures/pine_sapling_small_twig_arm_1k.jpg"
    }
  ],
  "accessors": [
    {
      "bufferView": 0,
      "componentType": 5126,
      "count": 315,
      "max": [
        0.19264821708202362,
        0.9629227519035339,
        0.2705112397670746
      ],
      "min": [
        -0.08108803629875183,
        0.0009154988802038133,
        -0.27830466628074646
      ],
      "type": "VEC3"
    },
    {
      "bufferView": 1,
      "componentType": 5126,
      "count": 315,
      "type": "VEC2"
    },
    {
      "bufferView": 2,
      "componentType": 5126,
      "count": 315,
      "type": "VEC3"
    },
    {
      "bufferView": 3,
      "componentType": 5123,
      "count": 1458,
      "type": "SCALAR"
    },
    {
      "bufferView": 4,
      "componentType": 5126,
      "count": 124481,
      "max": [
        0.26351654529571533,
        1.0465238094329834,
        0.39897364377975464
      ],
      "min": [
        -0.2652446925640106,
        0.19504235684871674,
        -0.3313728868961334
      ],
      "type": "VEC3"
    },
    {
      "bufferView": 5,
      "componentType": 5126,
      "count": 124481,
      "type": "VEC2"
    },
    {
      "bufferView": 6,
      "componentType": 5126,
      "count": 124481,
      "type": "VEC3"
    },
    {
      "bufferView": 7,
      "componentType": 5125,
      "count": 365247,
      "type": "SCALAR"
    },
    {
      "bufferView": 8,
      "componentType": 5126,
      "count": 351,
      "max": [
        0.29548653960227966,
        1.149692177772522,
        0.22946305572986603
      ],
      "min": [
        -0.25610455870628357,
        -0.015484155155718327,
        -0.3067292869091034
      ],
      "type": "VEC3"
    },
    {
      "bufferView": 9,
      "componentType": 5126,
      "count": 351,
      "type": "VEC2"
    },
    {
      "bufferView": 10,
      "componentType": 5126,
      "count": 351,
      "type": "VEC3"
    },
    {
      "bufferView": 11,
      "componentType": 5123,
      "count": 1620,
      "type": "SCALAR"
    },
    {
      "bufferView": 12,
      "componentType": 5126,
      "count": 145144,
      "max": [
        0.4273671805858612,
        1.283473253250122,
        0.3560454249382019
      ],
      "min": [
        -0.36030644178390503,
        0.22144107520580292,
        -0.3713758885860443
      ],
      "type": "VEC3"
    },
    {
      "bufferView": 13,
      "componentType": 5126,
      "count": 145144,
      "type": "VEC2"
    },
    {
      "bufferView": 14,
      "componentType": 5126,
      "count": 145144,
      "type": "VEC3"
    },
    {
      "bufferView": 15,
      "componentType": 5125,
      "count": 425898,
      "type": "SCALAR"
    },
    {
      "bufferView": 16,
      "componentType": 5126,
      "count": 344,
      "max": [
        0.16211965680122375,
        0.8720357418060303,
        0.14659176766872406
      ],
      "min": [
        -0.08341290801763535,
        0.000687308085616678,
        -0.27830466628074646
      ],
      "type": "VEC3"
    },
    {
      "bufferView": 17,
      "componentType": 5126,
      "count": 344,
      "type": "VEC2"
    },
    {
      "bufferView": 18,
      "componentType": 5126,
      "count": 344,
      "type": "VEC3"
    },
    {
      "bufferView": 19,
      "componentType": 5123,
      "count": 1584,
      "type": "SCALAR"
    },
    {
      "bufferView": 20,
      "componentType": 5126,
      "count": 135721,
      "max": [
        0.28175342082977295,
        0.9620128870010376,
        0.2592729330062866
      ],
      "min": [
        -0.23103249073028564,
        0.1294592022895813,
        -0.32069259881973267
      ],
      "type": "VEC3"
    },
    {
      "bufferView": 21,
      "componentType": 5126,
      "count": 135721,
      "type": "VEC2"
    },
    {
      "bufferView": 22,
      "componentType": 5126,
      "count": 135721,
      "type": "VEC3"
    },
    {
      "bufferView": 23,
      "componentType": 5125,
      "count": 398625,
      "type": "SCALAR"
    }
  ],
  "bufferViews": [
    {
      "buffer": 0,
      "byteLength": 3780,
      "byteOffset": 0,
      "target": 34962
    },
    {
      "buffer": 0,
      "byteLength": 2520,
      "byteOffset": 3780,
      "target": 34962
    },
    {
      "buffer": 0,
      "byteLength": 3780,
      "byteOffset": 6300,
      "target": 34962
    },
    {
      "buffer": 0,
      "byteLength": 2916,
      "byteOffset": 10080,
      "target": 34963
    },
    {
      "buffer": 0,
      "byteLength": 1493772,
      "byteOffset": 12996,
      "target": 34962
    },
    {
      "buffer": 0,
      "byteLength": 995848,
      "byteOffset": 1506768,
      "target": 34962
    },
    {
      "buffer": 0,
      "byteLength": 1493772,
      "byteOffset": 2502616,
      "target": 34962
    },
    {
      "buffer": 0,
      "byteLength": 1460988,
      "byteOffset": 3996388,
      "target": 34963
    },
    {
      "buffer": 0,
      "byteLength": 4212,
      "byteOffset": 5457376,
      "target": 34962
    },
    {
      "buffer": 0,
      "byteLength": 2808,
      "byteOffset": 5461588,
      "target": 34962
    },
    {
      "buffer": 0,
      "byteLength": 4212,
      "byteOffset": 5464396,
      "target": 34962
    },
    {
      "buffer": 0,
      "byteLength": 3240,
      "byteOffset": 5468608,
      "target": 34963
    },
    {
      "buffer": 0,
      "byteLength": 1741728,
      "byteOffset": 5471848,
      "target": 34962
    },
    {
      "buffer": 0,
      "byteLength": 1161152,
      "byteOffset": 7213576,
      "target": 34962
    },
    {
      "buffer": 0,
      "byteLength": 1741728,
      "byteOffset": 8374728,
      "target": 34962
    },
    {
      "buffer": 0,
      "byteLength": 1703592,
      "byteOffset": 10116456,
      "target": 34963
    },
    {
      "buffer": 0,
      "byteLength": 4128,
      "byteOffset": 11820048,
      "target": 34962
    },
    {
      "buffer": 0,
      "byteLength": 2752,
      "byteOffset": 11824176,
      "target": 34962
    },
    {
      "buffer": 0,
      "byteLength": 4128,
      "byteOffset": 11826928,
      "target": 34962
    },
    {
      "buffer": 0,
      "byteLength": 3168,
      "byteOffset": 11831056,
      "target": 34963
    },
    {
      "buffer": 0,
      "byteLength": 1628652,
      "byteOffset": 11834224,
      "target": 34962
    },
    {
      "buffer": 0,
      "byteLength": 1085768,
      "byteOffset": 13462876,
      "target": 34962
    },
    {
      "buffer": 0,
      "byteLength": 1628652,
      "byteOffset": 14548644,
      "target": 34962
    },
    {
      "buffer": 0,
      "byteLength": 1594500,
      "byteOffset": 16177296,
      "target": 34963
    }
  ],
  "samplers": [
    {
      "magFilter": 9729,
      "minFilter": 9987
    }
  ],
  "buffers": [
    {
      "byteLength": 17771796,
      "uri": "pine_sapling_small.bin"
    }
  ]
}