{
  "asset": {
    "generator": "Khronos glTF Blender I/O v4.0.44",
    "version": "2.0"
  },
  "scene": 0,
  "scenes": [
    {
      "name": "Scene",
      "nodes": [
        0
      ]
    }
  ],
  "nodes": [
    {
      "mesh": 0,
      "name": "root_cluster_01"
    }
  ],
  "materials": [
    {
      "doubleSided": true,
      "name": "root_cluster_01",
      "normalTexture": {
        "index": 0
      },
      "pbrMetallicRoughness": {
        "baseColorTexture": {
          "index": 1
        },
        "metallicFactor": 0,
        "metallicRoughnessTexture": {
          "index": 2
        }
      }
    }
  ],
  "meshes": [
    {
      "name": "root_cluster_5m.001",
      "primitives": [
        {
          "attributes": {
            "POSITION": 0,
            "NORMAL": 1,
            "TEXCOORD_0": 2
          },
          "indices": 3,
          "material": 0
        }
      ]
    }
  ],
  "textures": [
    {
      "sampler": 0,
      "source": 0
    },
    {
      "sampler": 0,
      "source": 1
    },
    {
      "sampler": 0,
      "source": 2
    }
  ],
  "images": [
    {
      "mimeType": "image/jpeg",
      "name": "root_cluster_01_nor_gl",
      "uri": "textures/root_cluster_01_nor_gl_1k.jpg"
    },
    {
      "mimeType": "image/jpeg",
      "name": "root_cluster_01_diff",
      "uri": "textures/root_cluster_01_diff_1k.jpg"
    },
    {
      "mimeType": "image/jpeg",
      "name": "root_cluster_01_rough",
      "uri": "textures/root_cluster_01_arm_1k.jpg"
    }
  ],
  "accessors": [
    {
      "bufferView": 0,
      "componentType": 5126,
      "count": 117551,
      "max": [
        2.0582945346832275,
        1.4638862609863281,
        1.6890140771865845
      ],
      "min": [
        -2.0644140243530273,
        -0.04539387673139572,
        -0.9937626123428345
      ],
      "type": "VEC3"
    },
    {
      "bufferView": 1,
      "componentType": 5126,
      "count": 117551,
      "type": "VEC3"
    },
    {
      "bufferView": 2,
      "componentType": 5126,
      "count": 117551,
      "type": "VEC2"
    },
    {
      "bufferView": 3,
      "componentType": 5125,
      "count": 675783,
      "type": "SCALAR"
    }
  ],
  "bufferViews": [
    {
      "buffer": 0,
      "byteLength": 1410612,
      "byteOffset": 0,
      "target": 34962
    },
    {
      "buffer": 0,
      "byteLength": 1410612,
      "byteOffset": 1410612,
      "target": 34962
    },
    {
      "buffer": 0,
      "byteLength": 940408,
      "byteOffset": 2821224,
      "target": 34962
    },
    {
      "buffer": 0,
      "byteLength": 2703132,
      "byteOffset": 3761632,
      "target": 34963
    }
  ],
  "samplers": [
    {
      "magFilter": 9729,
      "minFilter": 9987
    }
  ],
  "buffers": [
    {
      "byteLength": 6464764,
      "uri": "root_cluster_01.bin"
    }
  ]
}