{
  "asset": {
    "generator": "Khronos glTF Blender I/O v3.5.30",
    "version": "2.0"
  },
  "scene": 0,
  "scenes": [
    {
      "name": "Scene",
      "nodes": [
        0
      ]
    }
  ],
  "nodes": [
    {
      "mesh": 0,
      "name": "wooden_bowl_01"
    }
  ],
  "materials": [
    {
      "doubleSided": true,
      "name": "wooden_bowl_01",
      "normalTexture": {
        "index": 0
      },
      "pbrMetallicRoughness": {
        "baseColorTexture": {
          "index": 1
        },
        "metallicFactor": 0,
        "metallicRoughnessTexture": {
          "index": 2
        }
      }
    }
  ],
  "meshes": [
    {
      "name": "wood_root_bowl_50k_uv.001",
      "primitives": [
        {
          "attributes": {
            "POSITION": 0,
            "TEXCOORD_0": 1,
            "NORMAL": 2
          },
          "indices": 3,
          "material": 0
        }
      ]
    }
  ],
  "textures": [
    {
      "sampler": 0,
      "source": 0
    },
    {
      "sampler": 0,
      "source": 1
    },
    {
      "sampler": 0,
      "source": 2
    }
  ],
  "images": [
    {
      "mimeType": "image/jpeg",
      "name": "wooden_bowl_01_nor_gl",
      "uri": "textures/wooden_bowl_01_nor_gl_1k.jpg"
    },
    {
      "mimeType": "image/jpeg",
      "name": "wooden_bowl_01_diff",
      "uri": "textures/wooden_bowl_01_diff_1k.jpg"
    },
    {
      "mimeType": "image/jpeg",
      "name": "wooden_bowl_01_rough",
      "uri": "textures/wooden_bowl_01_arm_1k.jpg"
    }
  ],
  "accessors": [
    {
      "bufferView": 0,
      "componentType": 5126,
      "count": 7385,
      "max": [
        0.15623357892036438,
        0.09424005448818207,
        0.15522664785385132
      ],
      "min": [
        -0.15684805810451508,
        0.0005474991630762815,
        -0.15391573309898376
      ],
      "type": "VEC3"
    },
    {
      "bufferView": 1,
      "componentType": 5126,
      "count": 7385,
      "type": "VEC2"
    },
    {
      "bufferView": 2,
      "componentType": 5126,
      "count": 7385,
      "type": "VEC3"
    },
    {
      "bufferView": 3,
      "componentType": 5123,
      "count": 42366,
      "type": "SCALAR"
    }
  ],
  "bufferViews": [
    {
      "buffer": 0,
      "byteLength": 88620,
      "byteOffset": 0,
      "target": 34962
    },
    {
      "buffer": 0,
      "byteLength": 59080,
      "byteOffset": 88620,
      "target": 34962
    },
    {
      "buffer": 0,
      "byteLength": 88620,
      "byteOffset": 147700,
      "target": 34962
    },
    {
      "buffer": 0,
      "byteLength": 84732,
      "byteOffset": 236320,
      "target": 34963
    }
  ],
  "samplers": [
    {
      "magFilter": 9729,
      "minFilter": 9987
    }
  ],
  "buffers": [
    {
      "byteLength": 321052,
      "uri": "wooden_bowl_01.bin"
    }
  ]
}