{
  "asset": {
    "generator": "Khronos glTF Blender I/O v1.6.16",
    "version": "2.0"
  },
  "scene": 0,
  "scenes": [
    {
      "name": "Scene",
      "nodes": [
        0
      ]
    }
  ],
  "nodes": [
    {
      "mesh": 0,
      "name": "katana_stand_01"
    }
  ],
  "materials": [
    {
      "doubleSided": true,
      "name": "katana_stand_01",
      "normalTexture": {
        "index": 0
      },
      "pbrMetallicRoughness": {
        "baseColorTexture": {
          "index": 1
        },
        "metallicFactor": 0,
        "metallicRoughnessTexture": {
          "index": 2
        }
      }
    }
  ],
  "meshes": [
    {
      "name": "katana_stand_01_blockout.003",
      "primitives": [
        {
          "attributes": {
            "POSITION": 0,
            "NORMAL": 1,
            "TEXCOORD_0": 2
          },
          "indices": 3,
          "material": 0
        }
      ]
    }
  ],
  "textures": [
    {
      "sampler": 0,
      "source": 0
    },
    {
      "sampler": 0,
      "source": 1
    },
    {
      "sampler": 0,
      "source": 2
    }
  ],
  "images": [
    {
      "mimeType": "image/jpeg",
      "name": "katana_stand_01_nor_gl",
      "uri": "textures/katana_stand_01_nor_gl_1k.jpg"
    },
    {
      "mimeType": "image/jpeg",
      "name": "katana_stand_01_diff",
      "uri": "textures/katana_stand_01_diff_1k.jpg"
    },
    {
      "mimeType": "image/jpeg",
      "name": "katana_stand_01_arm",
      "uri": "textures/katana_stand_01_arm_1k.jpg"
    }
  ],
  "accessors": [
    {
      "bufferView": 0,
      "componentType": 5126,
      "count": 2546,
      "max": [
        0.14791372418403625,
        0.18199999630451202,
        0.05356398969888687
      ],
      "min": [
        -0.14791372418403625,
        0.00005399762812885456,
        0.00009400594717590138
      ],
      "type": "VEC3"
    },
    {
      "bufferView": 1,
      "componentType": 5126,
      "count": 2546,
      "type": "VEC3"
    },
    {
      "bufferView": 2,
      "componentType": 5126,
      "count": 2546,
      "type": "VEC2"
    },
    {
      "bufferView": 3,
      "componentType": 5123,
      "count": 11340,
      "type": "SCALAR"
    }
  ],
  "bufferViews": [
    {
      "buffer": 0,
      "byteLength": 30552,
      "byteOffset": 0
    },
    {
      "buffer": 0,
      "byteLength": 30552,
      "byteOffset": 30552
    },
    {
      "buffer": 0,
      "byteLength": 20368,
      "byteOffset": 61104
    },
    {
      "buffer": 0,
      "byteLength": 22680,
      "byteOffset": 81472
    }
  ],
  "samplers": [
    {
      "magFilter": 9729,
      "minFilter": 9987
    }
  ],
  "buffers": [
    {
      "byteLength": 104152,
      "uri": "katana_stand_01.bin"
    }
  ]
}